# xmcd
#
# Track frame offsets: 
#        150
#        19500
#        29295
#        41617
#        58818
#        71735
#        89689
#        101772
#        115794
#        136433
#        149348
#        159680
#        173079
#        186496
#
# Disc length: 2590 seconds
#
# Revision: 0
# Processed by: cddbd v1.5.2PL0 Copyright (c) Steve Scherf et al.
# Submitted via: ExactAudioCopy v0.95b4
#
DISCID=cc0a1c0e
DTITLE=The Blue Canyon Boys - Just an Ol' Dirt Road
DYEAR=2005
DGENRE=Bluegrass
TTITLE0=Blow My Blues Away
TTITLE1=Up in the Morning
TTITLE2=Where the Soul of a Man Never Dies
TTITLE3=Another Forty Bucks Gone
TTITLE4=When I Get Home
TTITLE5=Just an Ol' Dirt Road
TTITLE6=Rainin' on the Mountain
TTITLE7=Jesse James
TTITLE8=Once More
TTITLE9=Are You from Dixie?
TTITLE10=Six Days on the Road
TTITLE11=In My Dear Old Southern Home
TTITLE12=In This Valley
TTITLE13=Half a Dozen Heartaches
EXTD=
EXTT0=
EXTT1=
EXTT2=
EXTT3=
EXTT4=
EXTT5=
EXTT6=
EXTT7=
EXTT8=
EXTT9=
EXTT10=
EXTT11=
EXTT12=
EXTT13=
PLAYORDER=
